<svg width="50" height="50" viewBox="0 0 50 50" fill="none" xmlns="http://www.w3.org/2000/svg">
<rect width="50" height="50" rx="6" fill="#31363B"/>
<path d="M9.94602 35H4.65625L11.527 14.6364H18.0795L24.9503 35H19.6605L14.8778 19.767H14.7188L9.94602 35ZM9.24006 26.9858H20.2969V30.7244H9.24006V26.9858ZM44.6701 22.0142H39.6985C39.6322 21.5038 39.4963 21.0431 39.2908 20.6321C39.0853 20.2211 38.8136 19.8698 38.4755 19.5781C38.1374 19.2865 37.7364 19.0644 37.2724 18.9119C36.815 18.7528 36.3079 18.6733 35.7511 18.6733C34.7634 18.6733 33.9116 18.9152 33.1957 19.3991C32.4864 19.883 31.9395 20.5824 31.555 21.4972C31.1772 22.4119 30.9883 23.5189 30.9883 24.8182C30.9883 26.1705 31.1805 27.304 31.565 28.2188C31.9561 29.1269 32.503 29.813 33.2056 30.277C33.9149 30.7344 34.7534 30.9631 35.7212 30.9631C36.2648 30.9631 36.7586 30.8935 37.2028 30.7543C37.6535 30.6151 38.0479 30.4129 38.386 30.1477C38.7307 29.8759 39.0124 29.5478 39.2312 29.1634C39.4566 28.7723 39.6123 28.3314 39.6985 27.8409L44.6701 27.8707C44.5839 28.7723 44.3221 29.6605 43.8846 30.5355C43.4537 31.4105 42.8604 32.2093 42.1048 32.9318C41.3491 33.6477 40.4277 34.2178 39.3406 34.642C38.2601 35.0663 37.0205 35.2784 35.6218 35.2784C33.779 35.2784 32.1284 34.8741 30.6701 34.0653C29.2184 33.25 28.0716 32.0634 27.2298 30.5057C26.3879 28.9479 25.967 27.0521 25.967 24.8182C25.967 22.5777 26.3945 20.6785 27.2496 19.1207C28.1048 17.563 29.2615 16.3797 30.7198 15.571C32.1781 14.7623 33.8121 14.358 35.6218 14.358C36.8548 14.358 37.9949 14.5303 39.0423 14.875C40.0896 15.2131 41.011 15.7102 41.8065 16.3665C42.6019 17.0161 43.2482 17.8149 43.7454 18.7628C44.2425 19.7107 44.5508 20.7945 44.6701 22.0142Z" fill="#F2F2F2"/>
</svg>
