<svg width="24" height="24" viewBox="0 0 24 24" fill="none" xmlns="http://www.w3.org/2000/svg">
<path d="M5.42631 21.0453C6.06691 21.5395 7.04912 21.8916 8.5 21.6941V23.3866C8.5 23.4195 8.49485 23.4479 8.48786 23.4681C8.48347 23.4808 8.47948 23.4872 8.47773 23.4897C8.47579 23.4905 8.4721 23.4919 8.46587 23.4934C8.44883 23.4976 8.40705 23.5036 8.3314 23.4923C3.78427 21.9231 0.5 17.5116 0.5 12.3034C0.5 5.77316 5.66181 0.5 12 0.5C18.3392 0.5 23.5 5.77313 23.5 12.3034C23.5 17.5106 20.2184 21.9216 15.6741 23.4921C15.5942 23.505 15.5502 23.4991 15.5324 23.495C15.5271 23.4938 15.5236 23.4926 15.5216 23.4918C15.5197 23.489 15.5163 23.4827 15.5124 23.4716C15.5053 23.4509 15.5 23.4213 15.5 23.3866V20.0104C15.5 19.235 15.3361 18.5972 15.08 18.1059C16.1935 17.904 17.3272 17.5212 18.2441 16.7342C19.418 15.7267 20.156 14.1296 20.156 11.6615C20.156 10.3066 19.7202 9.16683 18.9854 8.25189C19.1593 7.65763 19.3567 6.4468 18.7696 4.92305L18.6843 4.70171L18.4589 4.62775L18.303 5.10282C18.4589 4.62775 18.4584 4.62759 18.4579 4.62743L18.4569 4.6271L18.4548 4.62642L18.4503 4.62501L18.4402 4.62196C18.4329 4.61983 18.4245 4.61753 18.4151 4.61512C18.3964 4.61032 18.3734 4.60512 18.3463 4.60009C18.2919 4.59003 18.2211 4.58075 18.1334 4.57665C17.9576 4.56842 17.7168 4.58112 17.4079 4.64796C16.8251 4.77406 16.0035 5.09184 14.9148 5.8209C13.9755 5.57632 12.9844 5.45464 12.0025 5.44971V5.44968L11.9975 5.44971C11.0157 5.45464 10.0256 5.57628 9.08798 5.82085C7.99822 5.09174 7.17572 4.774 6.59221 4.64793C6.28294 4.58111 6.04193 4.56843 5.866 4.57664C5.77821 4.58074 5.70732 4.59002 5.65296 4.60006C5.6258 4.60508 5.60287 4.61027 5.5841 4.61507C5.57471 4.61746 5.56638 4.61976 5.55909 4.62188L5.54895 4.62493L5.54447 4.62634L5.54237 4.62701L5.54136 4.62734C5.54086 4.6275 5.54037 4.62766 5.696 5.10282L5.54037 4.62766L5.31469 4.70157L5.22938 4.9232C4.64276 6.44712 4.84102 7.65827 5.01487 8.25229C4.28283 9.1661 3.843 10.3047 3.843 11.6615C3.843 14.1237 4.5798 15.7205 5.75046 16.7307C6.66725 17.5219 7.80124 17.9091 8.91477 18.1145C8.77945 18.3791 8.67162 18.6853 8.60123 19.0309C8.29894 19.1421 7.90028 19.2386 7.49197 19.2012C7.00155 19.1563 6.44613 18.916 5.99254 18.121L5.99186 18.1198L5.98318 18.1043C5.97609 18.0918 5.96636 18.0751 5.95402 18.0547C5.92937 18.0141 5.89407 17.9585 5.84816 17.8927C5.75683 17.7618 5.62091 17.5868 5.4403 17.4078C5.08305 17.0538 4.51741 16.6525 3.75265 16.5978L3.73834 16.5968L3.724 16.5966L3.717 17.0965C3.724 16.5966 3.72384 16.5966 3.72367 16.5966L3.72332 16.5966L3.72252 16.5966L3.7206 16.5966L3.71544 16.5965L3.70012 16.5966C3.6878 16.5967 3.67124 16.5969 3.65134 16.5976C3.61201 16.599 3.55733 16.6021 3.49526 16.609C3.39111 16.6207 3.1895 16.6504 3.01546 16.7518C2.92242 16.806 2.79437 16.9055 2.72179 17.0757C2.64333 17.2596 2.6637 17.4448 2.7247 17.5941C2.82743 17.8455 3.0692 18.0586 3.34688 18.2533L3.38043 18.2769L3.41076 18.2914L3.4177 18.2953C3.42852 18.3016 3.44942 18.3144 3.47854 18.3348C3.53668 18.3755 3.62796 18.4471 3.7374 18.5596C3.95397 18.7822 4.24853 19.1718 4.49653 19.814C4.49922 19.8218 4.50265 19.8315 4.50689 19.8429C4.51581 19.8669 4.52832 19.8987 4.54498 19.937C4.57824 20.0133 4.62834 20.1161 4.69974 20.2344C4.84234 20.4705 5.07248 20.7723 5.42631 21.0453ZM8.47952 23.4887C8.47954 23.4887 8.47925 23.4889 8.47857 23.4893L8.47952 23.4887Z" fill="#673DE6" stroke="#673DE6"/>
</svg>
