<svg width="32" height="32" viewBox="0 0 32 32" fill="none" xmlns="http://www.w3.org/2000/svg">
<path d="M16 1.28003C7.872 1.28003 1.28 7.87203 1.28 16C1.28 24.128 7.872 30.72 16 30.72C24.128 30.72 30.72 24.128 30.72 16C30.72 7.87203 24.128 1.28003 16 1.28003ZM12.16 22.4C12.16 22.72 11.84 23.04 11.52 23.04H8.96C8.64 23.04 8.32 22.72 8.32 22.4V12.8C8.32 12.48 8.64 12.16 8.96 12.16H11.52C11.84 12.16 12.16 12.48 12.16 12.8V22.4ZM10.24 11.52C9.216 11.52 8.32 10.624 8.32 9.60003C8.32 8.57603 9.216 7.68003 10.24 7.68003C11.264 7.68003 12.16 8.57603 12.16 9.60003C12.16 10.624 11.264 11.52 10.24 11.52ZM24.32 22.4C24.32 22.72 24 23.04 23.68 23.04H21.12C20.8 23.04 20.48 22.72 20.48 22.4V17.6C20.48 16.704 19.776 16 18.88 16C17.984 16 17.28 16.704 17.28 17.6V22.4C17.28 22.72 16.96 23.04 16.64 23.04H14.08C13.76 23.04 13.44 22.72 13.44 22.4V12.8C13.44 12.48 13.76 12.16 14.08 12.16H16.64C16.96 12.16 17.28 12.416 17.28 12.8C17.984 12.416 18.688 12.16 19.52 12.16C22.144 12.16 24.32 14.336 24.32 16.96V22.4Z" fill="#F2F2F2"/>
</svg>
