<svg width="542" height="407" viewBox="0 0 542 407" fill="none" xmlns="http://www.w3.org/2000/svg">
<g clip-path="url(#clip0_12_179)">
<path d="M405.6 299.58L130.366 291.683C124.177 291.511 118.264 289.086 113.733 284.862C109.202 280.638 106.365 274.905 105.754 268.737L92.4682 137.31C92.1145 133.792 92.4944 130.238 93.5839 126.875C94.6733 123.512 96.4486 120.412 98.7972 117.771C101.146 115.131 104.017 113.007 107.228 111.536C110.439 110.064 113.92 109.276 117.451 109.222L423.808 104.983C427.451 104.933 431.063 105.666 434.399 107.131C437.736 108.595 440.721 110.759 443.153 113.475C445.585 116.191 447.408 119.397 448.499 122.878C449.59 126.358 449.924 130.032 449.479 133.653L431.642 277.216C430.866 283.523 427.766 289.312 422.948 293.449C418.131 297.586 411.944 299.772 405.6 299.58Z" fill="#D5C7FF"/>
<path d="M365.956 335.245H585.879C587.984 335.245 590.004 334.408 591.493 332.917C592.982 331.426 593.818 329.404 593.818 327.296V202.44C593.818 200.332 592.982 198.31 591.493 196.819C590.004 195.328 587.984 194.491 585.879 194.491H365.956C363.85 194.491 361.831 195.328 360.342 196.819C358.853 198.31 358.016 200.332 358.016 202.44V327.296C358.016 329.404 358.853 331.426 360.342 332.917C361.831 334.408 363.85 335.245 365.956 335.245Z" stroke="#C2ADFF" stroke-width="1.8" stroke-linecap="round" stroke-linejoin="round"/>
<path d="M75.3189 326.872H297.147C299.253 326.872 301.272 326.034 302.761 324.544C304.25 323.053 305.087 321.031 305.087 318.923V136.462C305.087 134.353 304.25 132.331 302.761 130.841C301.272 129.35 299.253 128.512 297.147 128.512H75.3189C73.2133 128.512 71.1938 129.35 69.7049 130.841C68.216 132.331 67.3795 134.353 67.3795 136.462V318.923C67.3795 321.031 68.216 323.053 69.7049 324.544C71.1938 326.034 73.2133 326.872 75.3189 326.872Z" stroke="#C2ADFF" stroke-width="1.8" stroke-linecap="round" stroke-linejoin="round"/>
<path d="M377.918 194.438H388.663C389.222 194.439 389.763 194.235 390.183 193.864C390.602 193.493 390.871 192.981 390.939 192.424L391.786 184.793C391.82 184.473 391.788 184.149 391.689 183.842C391.591 183.535 391.429 183.253 391.214 183.013C391 182.773 390.737 182.581 390.443 182.449C390.149 182.318 389.831 182.249 389.51 182.249H377.071C376.75 182.25 376.432 182.319 376.139 182.451C375.845 182.583 375.583 182.775 375.368 183.014C375.154 183.254 374.992 183.536 374.893 183.843C374.794 184.149 374.761 184.473 374.795 184.793L375.642 192.424C375.709 192.981 375.978 193.493 376.398 193.864C376.817 194.235 377.358 194.439 377.918 194.438Z" stroke="#C2ADFF" stroke-width="1.8" stroke-linecap="round" stroke-linejoin="round"/>
<mask id="path-5-inside-1_12_179" fill="white">
<path d="M384.534 182.302C384.534 182.302 388.769 181.878 389.615 176.155C389.615 176.155 385.804 177.268 384.587 179.97C384.587 179.97 384.058 173.929 381.2 173.346C381.2 173.346 379.929 177.851 381.941 180.076C381.941 180.076 380.406 177.533 376.489 177.586C376.859 178.702 377.496 179.71 378.345 180.523C379.194 181.336 380.228 181.929 381.358 182.249"/>
</mask>
<path d="M384.534 182.302C384.534 182.302 388.769 181.878 389.615 176.155C389.615 176.155 385.804 177.268 384.587 179.97C384.587 179.97 384.058 173.929 381.2 173.346C381.2 173.346 379.929 177.851 381.941 180.076C381.941 180.076 380.406 177.533 376.489 177.586C376.859 178.702 377.496 179.71 378.345 180.523C379.194 181.336 380.228 181.929 381.358 182.249" fill="#C2ADFF"/>
<path d="M389.615 176.155L390.605 176.301L390.833 174.757L389.335 175.195L389.615 176.155ZM384.587 179.97L383.591 180.058L383.925 183.875L385.499 180.381L384.587 179.97ZM381.2 173.346L381.399 172.366L380.489 172.181L380.237 173.075L381.2 173.346ZM381.941 180.076L381.199 180.747L382.797 179.56L381.941 180.076ZM376.489 177.586L376.475 176.586L375.11 176.604L375.54 177.9L376.489 177.586ZM384.534 182.302C384.634 183.297 384.634 183.297 384.635 183.297C384.635 183.297 384.636 183.297 384.637 183.297C384.638 183.297 384.639 183.297 384.64 183.296C384.642 183.296 384.644 183.296 384.647 183.296C384.653 183.295 384.659 183.294 384.667 183.293C384.682 183.292 384.702 183.289 384.725 183.286C384.771 183.279 384.833 183.269 384.908 183.254C385.059 183.225 385.264 183.177 385.509 183.1C385.998 182.946 386.652 182.673 387.334 182.192C388.725 181.21 390.142 179.429 390.605 176.301L388.626 176.008C388.242 178.604 387.118 179.896 386.181 180.558C385.698 180.898 385.24 181.088 384.909 181.193C384.743 181.245 384.612 181.275 384.527 181.291C384.485 181.299 384.455 181.304 384.439 181.306C384.431 181.307 384.427 181.308 384.426 181.308C384.425 181.308 384.426 181.308 384.427 181.308C384.428 181.308 384.429 181.308 384.43 181.308C384.431 181.307 384.431 181.307 384.432 181.307C384.433 181.307 384.433 181.307 384.433 181.307C384.434 181.307 384.435 181.307 384.534 182.302ZM389.615 176.155C389.335 175.195 389.335 175.195 389.335 175.195C389.334 175.195 389.334 175.195 389.334 175.195C389.333 175.195 389.333 175.195 389.332 175.196C389.331 175.196 389.33 175.196 389.328 175.197C389.325 175.198 389.321 175.199 389.315 175.201C389.305 175.204 389.291 175.208 389.274 175.213C389.24 175.224 389.192 175.239 389.132 175.26C389.011 175.3 388.843 175.359 388.638 175.439C388.23 175.598 387.672 175.84 387.071 176.176C385.898 176.83 384.415 177.917 383.675 179.56L385.499 180.381C385.976 179.321 387.008 178.5 388.045 177.922C388.548 177.642 389.019 177.437 389.364 177.303C389.536 177.236 389.674 177.187 389.767 177.156C389.813 177.14 389.848 177.129 389.87 177.122C389.881 177.119 389.889 177.117 389.893 177.115C389.896 177.115 389.897 177.114 389.897 177.114C389.897 177.114 389.897 177.114 389.897 177.114C389.897 177.114 389.897 177.114 389.897 177.114C389.897 177.114 389.896 177.114 389.896 177.114C389.896 177.115 389.896 177.115 389.615 176.155ZM384.587 179.97C385.583 179.883 385.583 179.883 385.583 179.883C385.583 179.882 385.583 179.882 385.583 179.882C385.583 179.881 385.583 179.881 385.583 179.88C385.583 179.879 385.583 179.877 385.583 179.875C385.582 179.871 385.582 179.865 385.581 179.858C385.58 179.844 385.578 179.825 385.575 179.8C385.57 179.75 385.562 179.679 385.552 179.59C385.53 179.412 385.496 179.159 385.447 178.856C385.348 178.251 385.183 177.43 384.921 176.581C384.661 175.741 384.289 174.822 383.755 174.055C383.222 173.29 382.459 172.582 381.399 172.366L381 174.326C381.37 174.401 381.744 174.668 382.114 175.198C382.483 175.728 382.78 176.429 383.01 177.172C383.237 177.906 383.383 178.632 383.473 179.179C383.517 179.451 383.547 179.675 383.566 179.829C383.575 179.906 383.582 179.966 383.586 180.005C383.588 180.024 383.589 180.039 383.59 180.048C383.59 180.052 383.591 180.055 383.591 180.057C383.591 180.058 383.591 180.058 383.591 180.058C383.591 180.058 383.591 180.058 383.591 180.058C383.591 180.058 383.591 180.058 383.591 180.058C383.591 180.058 383.591 180.058 384.587 179.97ZM381.2 173.346C380.237 173.075 380.237 173.075 380.237 173.075C380.237 173.075 380.237 173.076 380.237 173.076C380.237 173.076 380.237 173.077 380.236 173.077C380.236 173.079 380.236 173.08 380.235 173.082C380.234 173.086 380.233 173.09 380.231 173.096C380.228 173.107 380.224 173.123 380.219 173.143C380.208 173.183 380.194 173.238 380.177 173.309C380.143 173.45 380.098 173.65 380.05 173.896C379.957 174.386 379.853 175.067 379.817 175.829C379.748 177.291 379.914 179.325 381.199 180.747L382.683 179.406C381.956 178.602 381.751 177.271 381.815 175.924C381.845 175.281 381.933 174.697 382.015 174.273C382.055 174.062 382.093 173.893 382.121 173.779C382.135 173.722 382.146 173.679 382.153 173.651C382.157 173.638 382.159 173.628 382.161 173.622C382.162 173.619 382.162 173.617 382.162 173.617C382.162 173.616 382.162 173.616 382.162 173.616C382.162 173.616 382.162 173.616 382.162 173.617C382.162 173.617 382.162 173.617 382.162 173.617C382.162 173.617 382.162 173.617 381.2 173.346ZM381.941 180.076C382.797 179.56 382.797 179.559 382.796 179.559C382.796 179.558 382.796 179.558 382.796 179.558C382.795 179.557 382.795 179.556 382.794 179.555C382.793 179.554 382.792 179.552 382.791 179.55C382.789 179.546 382.786 179.542 382.783 179.537C382.776 179.527 382.768 179.514 382.759 179.5C382.74 179.47 382.714 179.432 382.681 179.386C382.615 179.294 382.521 179.17 382.397 179.026C382.149 178.739 381.778 178.367 381.268 178C380.239 177.258 378.67 176.556 376.475 176.586L376.502 178.585C378.225 178.562 379.381 179.105 380.099 179.622C380.463 179.884 380.72 180.145 380.883 180.333C380.963 180.427 381.02 180.502 381.053 180.548C381.07 180.572 381.081 180.588 381.086 180.596C381.089 180.6 381.09 180.602 381.089 180.601C381.089 180.601 381.089 180.6 381.088 180.599C381.088 180.598 381.087 180.597 381.086 180.596C381.086 180.596 381.086 180.595 381.085 180.595C381.085 180.594 381.085 180.594 381.085 180.594C381.085 180.593 381.084 180.593 381.941 180.076ZM375.54 177.9C375.961 179.171 376.687 180.32 377.653 181.245L379.037 179.801C378.306 179.101 377.757 178.232 377.438 177.271L375.54 177.9ZM377.653 181.245C378.62 182.171 379.798 182.846 381.085 183.211L381.631 181.287C380.658 181.011 379.768 180.501 379.037 179.801L377.653 181.245Z" fill="#C2ADFF" mask="url(#path-5-inside-1_12_179)"/>
<path d="M120.838 183.998H131.583C132.143 183.999 132.684 183.795 133.103 183.424C133.523 183.053 133.792 182.541 133.859 181.984L134.706 174.353C134.741 174.033 134.708 173.709 134.61 173.402C134.511 173.095 134.35 172.813 134.135 172.573C133.92 172.333 133.657 172.141 133.364 172.009C133.07 171.878 132.752 171.809 132.43 171.809H119.992C119.67 171.81 119.352 171.879 119.059 172.011C118.766 172.143 118.503 172.335 118.289 172.574C118.074 172.814 117.912 173.096 117.814 173.403C117.715 173.709 117.682 174.033 117.716 174.353L118.563 181.984C118.631 182.54 118.9 183.052 119.319 183.423C119.739 183.794 120.279 183.998 120.838 183.998Z" stroke="#C2ADFF" stroke-width="1.8" stroke-linecap="round" stroke-linejoin="round"/>
<mask id="path-8-inside-2_12_179" fill="white">
<path d="M127.455 171.809C127.455 171.809 131.689 171.385 132.536 165.662C132.536 165.662 128.725 166.775 127.508 169.477C127.508 169.477 126.978 163.436 124.12 162.853C124.12 162.853 122.85 167.358 124.861 169.583C124.861 169.583 123.326 167.04 119.409 167.093C119.779 168.209 120.417 169.217 121.265 170.03C122.114 170.843 123.149 171.436 124.279 171.756"/>
</mask>
<path d="M132.536 165.662L133.525 165.808L133.754 164.264L132.256 164.702L132.536 165.662ZM127.508 169.477L126.511 169.565L126.846 173.382L128.419 169.888L127.508 169.477ZM124.12 162.853L124.32 161.873L123.41 161.688L123.158 162.582L124.12 162.853ZM124.861 169.583L124.119 170.254L125.717 169.067L124.861 169.583ZM119.409 167.093L119.396 166.093L118.03 166.111L118.46 167.407L119.409 167.093ZM127.455 171.809C127.554 172.804 127.555 172.804 127.556 172.804C127.556 172.804 127.557 172.804 127.557 172.804C127.558 172.804 127.559 172.804 127.56 172.804C127.562 172.803 127.565 172.803 127.568 172.803C127.573 172.802 127.58 172.801 127.587 172.8C127.603 172.799 127.622 172.796 127.645 172.793C127.691 172.786 127.753 172.776 127.829 172.761C127.979 172.732 128.185 172.684 128.43 172.607C128.919 172.453 129.572 172.18 130.254 171.699C131.646 170.717 133.062 168.936 133.525 165.808L131.547 165.515C131.163 168.111 130.038 169.404 129.101 170.065C128.619 170.405 128.161 170.595 127.829 170.7C127.664 170.752 127.532 170.782 127.448 170.798C127.406 170.806 127.376 170.811 127.36 170.813C127.352 170.814 127.347 170.815 127.346 170.815C127.346 170.815 127.346 170.815 127.348 170.815C127.348 170.815 127.349 170.815 127.351 170.815C127.351 170.814 127.352 170.814 127.353 170.814C127.353 170.814 127.354 170.814 127.354 170.814C127.354 170.814 127.355 170.814 127.455 171.809ZM132.536 165.662C132.256 164.702 132.255 164.702 132.255 164.702C132.255 164.702 132.255 164.702 132.254 164.702C132.254 164.702 132.253 164.702 132.253 164.703C132.252 164.703 132.25 164.703 132.249 164.704C132.245 164.705 132.241 164.706 132.236 164.708C132.226 164.711 132.212 164.715 132.195 164.72C132.16 164.731 132.112 164.746 132.052 164.767C131.932 164.807 131.763 164.866 131.559 164.946C131.151 165.105 130.593 165.347 129.991 165.683C128.818 166.337 127.336 167.424 126.596 169.067L128.419 169.888C128.897 168.828 129.929 168.007 130.965 167.429C131.469 167.149 131.94 166.944 132.284 166.81C132.456 166.743 132.594 166.694 132.687 166.663C132.734 166.647 132.769 166.636 132.791 166.629C132.802 166.626 132.81 166.624 132.814 166.622C132.816 166.622 132.817 166.621 132.818 166.621C132.818 166.621 132.818 166.621 132.818 166.621C132.818 166.621 132.817 166.621 132.817 166.621C132.817 166.621 132.817 166.621 132.817 166.621C132.816 166.622 132.816 166.622 132.536 165.662ZM127.508 169.477C128.504 169.39 128.504 169.39 128.504 169.39C128.504 169.389 128.504 169.389 128.504 169.389C128.504 169.388 128.504 169.388 128.504 169.387C128.503 169.386 128.503 169.384 128.503 169.382C128.503 169.378 128.502 169.372 128.502 169.365C128.5 169.351 128.498 169.332 128.496 169.307C128.491 169.257 128.483 169.186 128.472 169.097C128.451 168.919 128.417 168.666 128.367 168.363C128.268 167.759 128.104 166.937 127.841 166.088C127.581 165.248 127.21 164.329 126.676 163.562C126.142 162.797 125.379 162.089 124.32 161.873L123.92 163.833C124.29 163.908 124.665 164.175 125.035 164.705C125.404 165.235 125.701 165.936 125.93 166.679C126.157 167.413 126.304 168.139 126.393 168.686C126.438 168.958 126.468 169.182 126.486 169.336C126.496 169.413 126.502 169.473 126.506 169.512C126.508 169.531 126.51 169.546 126.51 169.555C126.511 169.559 126.511 169.562 126.511 169.564C126.511 169.565 126.511 169.565 126.511 169.565C126.511 169.565 126.511 169.565 126.511 169.565C126.511 169.565 126.511 169.565 126.511 169.565C126.511 169.565 126.511 169.565 127.508 169.477ZM124.12 162.853C123.158 162.582 123.158 162.582 123.157 162.582C123.157 162.582 123.157 162.583 123.157 162.583C123.157 162.583 123.157 162.584 123.157 162.584C123.156 162.586 123.156 162.587 123.156 162.589C123.155 162.593 123.153 162.597 123.152 162.603C123.149 162.614 123.144 162.63 123.139 162.65C123.129 162.69 123.114 162.745 123.097 162.816C123.063 162.957 123.018 163.157 122.971 163.403C122.877 163.893 122.773 164.574 122.737 165.336C122.669 166.798 122.834 168.832 124.119 170.254L125.603 168.913C124.876 168.109 124.672 166.778 124.735 165.431C124.766 164.788 124.854 164.204 124.935 163.78C124.976 163.569 125.014 163.4 125.041 163.286C125.055 163.229 125.066 163.186 125.073 163.158C125.077 163.145 125.08 163.135 125.081 163.129C125.082 163.126 125.083 163.124 125.083 163.124C125.083 163.123 125.083 163.123 125.083 163.123C125.083 163.123 125.083 163.123 125.083 163.124C125.083 163.124 125.083 163.124 125.083 163.124C125.083 163.124 125.083 163.124 124.12 162.853ZM124.861 169.583C125.717 169.067 125.717 169.066 125.717 169.066C125.717 169.066 125.716 169.065 125.716 169.065C125.716 169.064 125.715 169.063 125.715 169.062C125.714 169.061 125.713 169.059 125.712 169.057C125.709 169.053 125.706 169.049 125.703 169.044C125.697 169.034 125.689 169.021 125.679 169.007C125.66 168.977 125.634 168.939 125.601 168.893C125.535 168.801 125.441 168.677 125.317 168.533C125.069 168.246 124.698 167.874 124.189 167.507C123.16 166.765 121.59 166.063 119.396 166.093L119.423 168.092C121.145 168.069 122.302 168.612 123.019 169.129C123.383 169.391 123.641 169.652 123.803 169.84C123.884 169.934 123.94 170.009 123.974 170.055C123.991 170.079 124.001 170.095 124.006 170.103C124.009 170.107 124.01 170.109 124.01 170.108C124.01 170.108 124.009 170.107 124.008 170.106C124.008 170.105 124.008 170.104 124.007 170.103C124.007 170.103 124.006 170.102 124.006 170.102C124.006 170.101 124.006 170.101 124.005 170.101C124.005 170.1 124.005 170.1 124.861 169.583ZM118.46 167.407C118.882 168.678 119.607 169.827 120.574 170.752L121.957 169.308C121.226 168.608 120.677 167.739 120.359 166.778L118.46 167.407ZM120.574 170.752C121.54 171.678 122.719 172.353 124.006 172.718L124.552 170.794C123.579 170.518 122.688 170.008 121.957 169.308L120.574 170.752Z" fill="#C2ADFF" mask="url(#path-8-inside-2_12_179)"/>
<path d="M367.65 220.829H415.392C415.98 220.825 416.544 220.589 416.96 220.173C417.376 219.756 417.611 219.193 417.615 218.604V204.03C417.611 203.441 417.376 202.877 416.96 202.461C416.544 202.044 415.98 201.808 415.392 201.804H367.65C367.061 201.808 366.498 202.044 366.082 202.461C365.666 202.877 365.431 203.441 365.427 204.03V218.551C365.423 218.846 365.478 219.14 365.588 219.414C365.697 219.689 365.86 219.939 366.067 220.151C366.273 220.363 366.519 220.531 366.791 220.648C367.062 220.764 367.354 220.826 367.65 220.829Z" stroke="#C2ADFF" stroke-width="1.8" stroke-linecap="round" stroke-linejoin="round"/>
<path d="M397.227 206.406C397.171 206.462 397.096 206.494 397.018 206.498H386.024C385.945 206.494 385.871 206.462 385.815 206.406C385.76 206.351 385.728 206.279 385.723 206.203C385.728 206.126 385.76 206.054 385.815 206C385.871 205.944 385.945 205.911 386.024 205.908H397.018C397.096 205.911 397.171 205.944 397.227 206C397.281 206.054 397.314 206.126 397.319 206.203C397.314 206.279 397.281 206.351 397.227 206.406Z" fill="#B8D8C7" stroke="#C2ADFF"/>
<path d="M367.65 245.101H415.392C415.98 245.097 416.544 244.861 416.96 244.444C417.376 244.028 417.611 243.464 417.615 242.875V228.355C417.611 227.766 417.376 227.202 416.96 226.785C416.544 226.369 415.98 226.133 415.392 226.129H367.65C367.061 226.133 366.498 226.369 366.082 226.785C365.666 227.202 365.431 227.766 365.427 228.355V242.875C365.431 243.464 365.666 244.028 366.082 244.444C366.498 244.861 367.061 245.097 367.65 245.101V245.101Z" stroke="#C2ADFF" stroke-width="1.8" stroke-linecap="round" stroke-linejoin="round"/>
<path d="M397.227 230.677C397.171 230.733 397.096 230.766 397.018 230.769H386.024C385.945 230.766 385.871 230.733 385.815 230.677C385.76 230.623 385.728 230.551 385.723 230.474C385.728 230.398 385.76 230.326 385.815 230.272C385.871 230.215 385.945 230.183 386.024 230.179H397.018C397.096 230.183 397.171 230.215 397.227 230.272C397.281 230.326 397.314 230.398 397.319 230.474C397.314 230.551 397.281 230.623 397.227 230.677Z" fill="#B8D8C7" stroke="#C2ADFF"/>
<path d="M122.479 262.271H170.222C170.81 262.267 171.373 262.031 171.789 261.615C172.205 261.198 172.441 260.634 172.445 260.045V245.525C172.441 244.936 172.205 244.372 171.789 243.956C171.373 243.539 170.81 243.303 170.222 243.299H122.479C121.891 243.303 121.328 243.539 120.912 243.956C120.496 244.372 120.26 244.936 120.256 245.525V260.045C120.26 260.634 120.496 261.198 120.912 261.615C121.328 262.031 121.891 262.267 122.479 262.271V262.271Z" stroke="#C2ADFF" stroke-width="1.8" stroke-linecap="round" stroke-linejoin="round"/>
<path d="M140.899 247.887H140.884L140.87 247.887C140.834 247.889 140.799 247.884 140.766 247.871C140.733 247.859 140.703 247.839 140.678 247.814C140.652 247.789 140.633 247.759 140.62 247.725C140.607 247.692 140.602 247.656 140.604 247.621L140.605 247.613L140.605 247.604C140.607 247.523 140.64 247.446 140.697 247.389C140.753 247.333 140.828 247.3 140.907 247.297H151.9C151.979 247.3 152.054 247.333 152.11 247.389C152.164 247.443 152.197 247.515 152.202 247.592C152.197 247.668 152.164 247.74 152.11 247.794C152.054 247.851 151.979 247.883 151.9 247.887H140.899Z" fill="#B8D8C7" stroke="#C2ADFF"/>
<path d="M183.772 262.271H231.514C232.103 262.267 232.666 262.031 233.082 261.615C233.498 261.198 233.733 260.634 233.738 260.045V245.525C233.733 244.936 233.498 244.372 233.082 243.956C232.666 243.539 232.103 243.303 231.514 243.299H183.772C183.184 243.303 182.621 243.539 182.205 243.956C181.789 244.372 181.553 244.936 181.549 245.525V260.045C181.553 260.634 181.789 261.198 182.205 261.615C182.621 262.031 183.184 262.267 183.772 262.271V262.271Z" stroke="#C2ADFF" stroke-width="1.8" stroke-linecap="round" stroke-linejoin="round"/>
<path d="M202.191 247.887H202.177L202.162 247.887C202.127 247.889 202.092 247.884 202.059 247.871C202.025 247.859 201.995 247.839 201.97 247.814C201.945 247.789 201.925 247.759 201.913 247.725C201.9 247.692 201.895 247.656 201.897 247.621L201.897 247.613L201.897 247.604C201.899 247.523 201.933 247.446 201.99 247.389C202.046 247.333 202.121 247.3 202.199 247.297H213.193C213.272 247.3 213.347 247.333 213.403 247.389C213.457 247.443 213.489 247.515 213.494 247.592C213.489 247.668 213.457 247.74 213.403 247.794C213.346 247.851 213.272 247.883 213.193 247.887H202.191Z" fill="#B8D8C7" stroke="#C2ADFF"/>
<path d="M428.519 220.829H476.261C476.85 220.825 477.413 220.589 477.829 220.173C478.245 219.756 478.48 219.193 478.484 218.604V204.03C478.48 203.441 478.245 202.877 477.829 202.461C477.413 202.044 476.85 201.808 476.261 201.804H428.519C427.93 201.808 427.367 202.044 426.951 202.461C426.535 202.877 426.3 203.441 426.296 204.03V218.551C426.292 218.846 426.347 219.14 426.457 219.414C426.567 219.689 426.729 219.939 426.936 220.151C427.142 220.363 427.388 220.531 427.66 220.648C427.931 220.764 428.223 220.826 428.519 220.829Z" stroke="#C2ADFF" stroke-width="1.8" stroke-linecap="round" stroke-linejoin="round"/>
<path d="M458.096 206.406C458.04 206.462 457.966 206.494 457.887 206.498H446.893C446.815 206.494 446.74 206.462 446.684 206.406C446.629 206.351 446.597 206.279 446.592 206.203C446.597 206.126 446.629 206.054 446.684 206C446.74 205.944 446.814 205.911 446.893 205.908H457.887C457.966 205.911 458.04 205.944 458.096 206C458.151 206.054 458.183 206.126 458.188 206.203C458.183 206.279 458.151 206.351 458.096 206.406Z" fill="#B8D8C7" stroke="#C2ADFF"/>
<path d="M428.519 245.101H476.261C476.85 245.097 477.413 244.861 477.829 244.444C478.245 244.028 478.48 243.464 478.484 242.875V228.355C478.48 227.766 478.245 227.202 477.829 226.785C477.413 226.369 476.85 226.133 476.261 226.129H428.519C427.93 226.133 427.367 226.369 426.951 226.785C426.535 227.202 426.3 227.766 426.296 228.355V242.875C426.3 243.464 426.535 244.028 426.951 244.444C427.367 244.861 427.93 245.097 428.519 245.101V245.101Z" stroke="#C2ADFF" stroke-width="1.8" stroke-linecap="round" stroke-linejoin="round"/>
<path d="M458.096 230.677C458.04 230.733 457.966 230.766 457.887 230.769H446.893C446.814 230.766 446.74 230.733 446.684 230.677C446.629 230.623 446.597 230.551 446.592 230.474C446.597 230.398 446.629 230.326 446.684 230.272C446.74 230.215 446.815 230.183 446.893 230.179H457.887C457.966 230.183 458.04 230.215 458.096 230.272C458.151 230.326 458.183 230.398 458.188 230.474C458.183 230.551 458.151 230.623 458.096 230.677Z" fill="#B8D8C7" stroke="#C2ADFF"/>
<path d="M52.9826 184.051H293.813C294.456 184.044 295.072 183.785 295.527 183.329C295.982 182.874 296.241 182.258 296.247 181.613V139.376C296.241 138.732 295.982 138.116 295.527 137.66C295.072 137.204 294.456 136.945 293.813 136.939H52.9826C52.339 136.945 51.7237 137.204 51.2686 137.66C50.8135 138.116 50.5547 138.732 50.5478 139.376V181.613C50.5472 181.933 50.6097 182.251 50.7318 182.547C50.8539 182.843 51.0332 183.112 51.2594 183.338C51.4856 183.565 51.7543 183.745 52.05 183.867C52.3458 183.989 52.6627 184.052 52.9826 184.051V184.051Z" stroke="#C2ADFF" stroke-width="1.8" stroke-linecap="round" stroke-linejoin="round"/>
<path d="M52.9826 236.516H293.813C294.456 236.509 295.072 236.25 295.527 235.794C295.982 235.338 296.241 234.722 296.247 234.078V191.841C296.241 191.197 295.982 190.581 295.527 190.125C295.072 189.669 294.456 189.41 293.813 189.403H52.9826C52.339 189.41 51.7237 189.669 51.2686 190.125C50.8135 190.581 50.5547 191.197 50.5479 191.841V234.078C50.5547 234.722 50.8135 235.338 51.2686 235.794C51.7237 236.25 52.339 236.509 52.9826 236.516V236.516Z" stroke="#C2ADFF" stroke-width="1.8" stroke-linecap="round" stroke-linejoin="round"/>
<path d="M280.067 157.442H274.827V184.099H280.067V157.442Z" stroke="#B8D8C7" stroke-width="1.8" stroke-linecap="round" stroke-linejoin="round"/>
<path d="M274.806 164.655H269.354V184.051H274.806V164.655Z" stroke="#B8D8C7" stroke-width="1.8" stroke-linecap="round" stroke-linejoin="round"/>
<path d="M122.135 209.769H116.895V236.426H122.135V209.769Z" stroke="#C2ADFF" stroke-width="1.8" stroke-linecap="round" stroke-linejoin="round"/>
<path d="M116.874 217.035H111.422V236.431H116.874V217.035Z" stroke="#C2ADFF" stroke-width="1.8" stroke-linecap="round" stroke-linejoin="round"/>
<path d="M132.769 209.769H127.529V236.426H132.769V209.769Z" stroke="#C2ADFF" stroke-width="1.8" stroke-linecap="round" stroke-linejoin="round"/>
<path d="M137.68 209.219L132.683 210.799L140.698 236.219L145.694 234.639L137.68 209.219Z" stroke="#C2ADFF" stroke-width="1.8" stroke-linecap="round" stroke-linejoin="round"/>
<path d="M127.561 217.035H122.109V236.431H127.561V217.035Z" stroke="#C2ADFF" stroke-width="1.8" stroke-linecap="round" stroke-linejoin="round"/>
<path d="M233.109 161.312L233.109 161.312L237.754 161.312L237.754 161.312L237.756 161.314L237.765 161.32L237.802 161.344C237.835 161.366 237.884 161.399 237.947 161.442C238.073 161.528 238.254 161.655 238.472 161.815C238.908 162.136 239.487 162.588 240.062 163.115C240.639 163.645 241.199 164.238 241.608 164.84C242.023 165.449 242.245 166.013 242.236 166.498C242.183 168.43 241.025 177.768 240.493 181.921L240.492 181.924C240.44 182.359 240.23 182.76 239.902 183.05C239.574 183.34 239.151 183.499 238.714 183.498H238.713L232.15 183.498L232.148 183.498C231.711 183.499 231.289 183.34 230.961 183.05C230.633 182.76 230.423 182.359 230.37 181.924L230.37 181.921C229.838 177.768 228.679 168.429 228.627 166.498C228.617 166.013 228.84 165.449 229.254 164.84C229.663 164.238 230.223 163.645 230.8 163.115C231.375 162.588 231.954 162.136 232.39 161.815C232.608 161.655 232.789 161.528 232.915 161.442C232.978 161.399 233.028 161.366 233.061 161.344L233.098 161.32L233.107 161.314L233.109 161.312L233.109 161.312ZM237.504 161.151L237.754 161.312L233.358 161.151L233.336 160.855L232.754 152.959L232.754 152.959L232.753 152.95C232.748 152.897 232.755 152.844 232.772 152.794C232.79 152.743 232.818 152.697 232.854 152.659C232.89 152.62 232.935 152.59 232.983 152.57C233.032 152.549 233.085 152.54 233.138 152.542L233.147 152.542H233.155H237.706C237.76 152.542 237.814 152.554 237.864 152.575C237.914 152.597 237.96 152.629 237.997 152.669L238.361 152.326L237.997 152.669C238.035 152.709 238.064 152.756 238.083 152.808C238.102 152.858 238.11 152.912 238.108 152.965L237.526 160.855L237.504 161.151Z" fill="#C2ADFF" stroke="#C2ADFF"/>
<path d="M209.714 161.312L209.714 161.312L214.359 161.312L214.359 161.312L214.361 161.314L214.37 161.32L214.407 161.344C214.44 161.366 214.489 161.399 214.552 161.442C214.678 161.528 214.859 161.655 215.077 161.815C215.513 162.136 216.092 162.588 216.667 163.115C217.244 163.645 217.804 164.238 218.213 164.84C218.628 165.449 218.85 166.013 218.841 166.498C218.788 168.43 217.63 177.768 217.098 181.921L217.098 181.924C217.045 182.359 216.835 182.76 216.507 183.05C216.179 183.34 215.756 183.499 215.319 183.498H215.318L208.755 183.498L208.753 183.498C208.316 183.499 207.894 183.34 207.566 183.05C207.238 182.76 207.028 182.359 206.975 181.924L206.975 181.921C206.443 177.768 205.285 168.429 205.232 166.498C205.222 166.013 205.445 165.449 205.859 164.84C206.268 164.238 206.828 163.645 207.406 163.115C207.981 162.588 208.559 162.136 208.996 161.815C209.213 161.655 209.394 161.528 209.52 161.442C209.583 161.399 209.633 161.366 209.666 161.344L209.703 161.32L209.712 161.314L209.714 161.312L209.714 161.312ZM214.109 161.151L214.359 161.312L209.963 161.151L209.941 160.855L209.359 152.959L209.359 152.959L209.358 152.95C209.354 152.897 209.36 152.844 209.377 152.794C209.395 152.743 209.423 152.697 209.459 152.659C209.495 152.62 209.54 152.59 209.589 152.57C209.638 152.549 209.69 152.54 209.743 152.542L209.752 152.542H209.76H214.311C214.365 152.542 214.419 152.554 214.469 152.575C214.519 152.597 214.565 152.629 214.603 152.669L214.966 152.326L214.603 152.669C214.64 152.709 214.669 152.756 214.688 152.808C214.707 152.858 214.715 152.912 214.713 152.965L214.131 160.855L214.109 161.151Z" fill="#C2ADFF" stroke="#C2ADFF"/>
<path d="M443.127 286.543H-50.6537" stroke="#C2ADFF" stroke-width="1.8" stroke-linecap="round" stroke-linejoin="round"/>
<path d="M224.369 236.516H180.331C179.644 236.514 178.985 236.24 178.499 235.754C178.013 235.267 177.739 234.607 177.738 233.919V226.977C177.739 226.288 178.013 225.629 178.499 225.142C178.985 224.655 179.644 224.381 180.331 224.38H224.369C225.056 224.381 225.715 224.655 226.201 225.142C226.687 225.629 226.961 226.288 226.962 226.977V233.919C226.961 234.607 226.687 235.267 226.201 235.754C225.715 236.24 225.056 236.514 224.369 236.516V236.516Z" stroke="#C2ADFF" stroke-width="1.8" stroke-linecap="round" stroke-linejoin="round"/>
<path d="M218.176 213.198H186.418V224.327H218.176V213.198Z" stroke="#C2ADFF" stroke-width="1.8" stroke-linecap="round" stroke-linejoin="round"/>
<path d="M182.713 229.202C183.152 229.202 183.507 228.847 183.507 228.408C183.507 227.969 183.152 227.613 182.713 227.613C182.275 227.613 181.919 227.969 181.919 228.408C181.919 228.847 182.275 229.202 182.713 229.202Z" fill="#B8D8C7"/>
<path d="M229.874 224.592L252.21 216.272C252.627 216.11 252.986 215.826 253.241 215.458C253.496 215.089 253.634 214.653 253.639 214.205L209.284 211.025L216.112 223.32L227.651 224.857C228.402 224.956 229.166 224.865 229.874 224.592Z" fill="#63737A"/>
<path d="M173.662 216.484L169.64 185.058C169.615 184.852 169.635 184.643 169.699 184.446C169.763 184.249 169.87 184.069 170.011 183.917C170.152 183.766 170.325 183.647 170.517 183.569C170.708 183.492 170.915 183.457 171.122 183.468L224.792 187.284C225.177 187.309 225.54 187.473 225.813 187.746C226.085 188.019 226.249 188.382 226.274 188.767L229.45 223.373C229.471 223.585 229.444 223.798 229.371 223.998C229.298 224.198 229.18 224.378 229.028 224.526C228.875 224.674 228.691 224.785 228.489 224.852C228.287 224.918 228.073 224.938 227.862 224.91L175.038 217.915C174.687 217.853 174.365 217.681 174.117 217.424C173.87 217.167 173.711 216.837 173.662 216.484Z" fill="#22272E"/>
<path d="M253.639 214.258C253.642 214.708 253.506 215.147 253.25 215.517C252.995 215.887 252.631 216.169 252.21 216.325L229.874 224.645C229.319 224.865 228.722 224.956 228.127 224.91C227.567 224.456 227.099 223.898 226.751 223.267L253.639 214.258Z" fill="#22272E"/>
<path d="M199.301 206.065C200.712 205.021 200.871 202.84 199.655 201.192C198.44 199.543 196.311 199.053 194.9 200.096C193.489 201.139 193.33 203.321 194.546 204.969C195.761 206.617 197.89 207.108 199.301 206.065Z" fill="#63737A"/>
<path d="M323.559 74.2457H307.363L305.722 75.3056C305.601 75.3841 305.461 75.428 305.317 75.4324C305.173 75.4368 305.03 75.4016 304.905 75.3306C304.779 75.2595 304.675 75.1554 304.605 75.0296C304.534 74.9037 304.5 74.7609 304.504 74.6167V63.1168C304.504 62.5546 304.728 62.0154 305.125 61.6179C305.522 61.2203 306.06 60.997 306.622 60.997H323.612C324.174 60.997 324.712 61.2203 325.109 61.6179C325.506 62.0154 325.729 62.5546 325.729 63.1168V72.0729C325.718 72.6458 325.486 73.1922 325.082 73.5973C324.677 74.0024 324.131 74.2348 323.559 74.2457Z" fill="#FC5185"/>
<path d="M314.879 66.2965H320.542" stroke="#31363B" stroke-width="1.8" stroke-linecap="round" stroke-linejoin="round"/>
<path d="M314.879 69.2112H318.319" stroke="#31363B" stroke-width="1.8" stroke-linecap="round" stroke-linejoin="round"/>
<path d="M311.968 66.2965H309.056V69.2112H311.968V66.2965Z" stroke="#31363B" stroke-width="1.8" stroke-linecap="round" stroke-linejoin="round"/>
<path d="M226.804 160.044L137.353 173.611C136.88 173.684 136.398 173.658 135.936 173.535C135.474 173.411 135.043 173.193 134.67 172.894C134.297 172.595 133.99 172.222 133.768 171.798C133.547 171.374 133.415 170.909 133.383 170.431L128.037 89.7732C128 89.2487 128.076 88.7223 128.26 88.2298C128.444 87.7372 128.731 87.2899 129.102 86.9181C129.474 86.5463 129.92 86.2587 130.412 86.0747C130.904 85.8907 131.43 85.8146 131.954 85.8516L221.564 91.575C222.385 91.6266 223.162 91.9698 223.753 92.5428C224.345 93.1158 224.713 93.8812 224.792 94.7017L229.927 156.123C229.983 157.047 229.696 157.96 229.119 158.685C228.542 159.409 227.717 159.894 226.804 160.044Z" fill="#63737A"/>
<path d="M229.238 159.938L139.364 173.558C138.892 173.631 138.409 173.605 137.947 173.482C137.486 173.358 137.055 173.14 136.681 172.841C136.308 172.542 136.001 172.169 135.779 171.745C135.558 171.321 135.427 170.856 135.394 170.378L129.995 89.3492C129.956 88.8171 130.031 88.2828 130.217 87.7826C130.402 87.2824 130.693 86.8282 131.07 86.4509C131.447 86.0736 131.901 85.7822 132.4 85.5964C132.9 85.4107 133.434 85.335 133.965 85.3746L223.946 91.098C224.775 91.1524 225.557 91.5034 226.15 92.0871C226.743 92.6707 227.106 93.4482 227.174 94.2777L232.361 155.964C232.465 156.904 232.196 157.847 231.611 158.59C231.027 159.334 230.175 159.818 229.238 159.938Z" fill="#31363B"/>
<path d="M170.645 132.169L145.345 133.547C144.96 133.564 144.583 133.43 144.296 133.172C144.009 132.914 143.835 132.554 143.81 132.169L142.328 110.759C142.316 110.556 142.346 110.353 142.415 110.162C142.484 109.971 142.591 109.796 142.73 109.647C142.868 109.499 143.035 109.38 143.221 109.298C143.407 109.215 143.607 109.172 143.81 109.169L169.11 109.328C169.487 109.322 169.852 109.462 170.128 109.719C170.404 109.976 170.571 110.329 170.592 110.706L172.074 130.579C172.087 130.778 172.06 130.978 171.995 131.166C171.93 131.354 171.828 131.527 171.694 131.676C171.561 131.824 171.4 131.944 171.22 132.028C171.039 132.113 170.844 132.161 170.645 132.169Z" fill="#EDA92D"/>
<path d="M197.851 123.902L176.679 124.644C176.294 124.661 175.918 124.527 175.631 124.269C175.343 124.011 175.169 123.651 175.144 123.266L174.245 110.918C174.233 110.715 174.263 110.512 174.332 110.321C174.401 110.13 174.508 109.955 174.646 109.806C174.785 109.658 174.952 109.539 175.138 109.457C175.323 109.374 175.524 109.331 175.727 109.328L196.898 109.487C197.27 109.498 197.626 109.644 197.898 109.897C198.171 110.151 198.342 110.495 198.38 110.865L199.28 122.312C199.298 122.512 199.274 122.713 199.21 122.903C199.147 123.094 199.045 123.269 198.911 123.418C198.777 123.567 198.614 123.687 198.431 123.77C198.249 123.853 198.051 123.898 197.851 123.902Z" fill="#673DE6"/>
<path d="M221.828 123.107L203.991 123.743C203.606 123.76 203.229 123.626 202.942 123.368C202.655 123.11 202.481 122.75 202.456 122.365L201.556 111.183C201.545 110.98 201.575 110.777 201.644 110.586C201.713 110.395 201.82 110.22 201.958 110.071C202.097 109.923 202.264 109.804 202.449 109.722C202.635 109.639 202.835 109.596 203.038 109.593L220.876 109.699C221.247 109.71 221.603 109.856 221.875 110.109C222.148 110.363 222.319 110.707 222.358 111.077L223.204 121.517C223.224 121.713 223.204 121.911 223.144 122.099C223.085 122.287 222.988 122.46 222.859 122.609C222.73 122.758 222.572 122.879 222.395 122.964C222.218 123.05 222.025 123.099 221.828 123.107Z" fill="#FC5185"/>
<path d="M172.233 152.943L146.933 155.699C146.733 155.723 146.531 155.706 146.339 155.649C146.146 155.592 145.968 155.495 145.814 155.366C145.66 155.237 145.534 155.078 145.445 154.898C145.355 154.718 145.303 154.522 145.292 154.321L144.339 140.489C144.32 140.098 144.452 139.714 144.709 139.418C144.965 139.121 145.326 138.936 145.715 138.899L171.069 137.204C171.263 137.189 171.459 137.213 171.644 137.275C171.83 137.336 172.001 137.434 172.149 137.562C172.296 137.69 172.417 137.846 172.504 138.021C172.591 138.196 172.643 138.386 172.657 138.581L173.609 151.353C173.613 151.74 173.475 152.116 173.221 152.409C172.968 152.701 172.617 152.891 172.233 152.943Z" stroke="#63737A" stroke-width="1.8" stroke-linecap="round" stroke-linejoin="round"/>
<path d="M200.233 152.413L179.114 154.904C178.915 154.928 178.713 154.911 178.52 154.854C178.328 154.797 178.149 154.7 177.995 154.571C177.841 154.442 177.716 154.283 177.626 154.103C177.536 153.923 177.484 153.727 177.473 153.526L175.779 130.685C175.752 130.292 175.881 129.903 176.139 129.605C176.397 129.307 176.763 129.124 177.156 129.095L198.328 128.088C198.713 128.071 199.089 128.206 199.376 128.463C199.663 128.721 199.838 129.081 199.863 129.466L201.556 150.823C201.579 151.207 201.455 151.585 201.209 151.881C200.963 152.176 200.614 152.366 200.233 152.413Z" fill="#FC5185"/>
<path d="M195.84 132.063L180.649 132.964C180.563 132.963 180.478 132.982 180.4 133.018C180.322 133.054 180.253 133.106 180.197 133.172C180.142 133.238 180.101 133.315 180.079 133.398C180.056 133.481 180.052 133.568 180.067 133.653L180.755 143.086C180.759 143.171 180.78 143.254 180.817 143.33C180.854 143.406 180.907 143.473 180.972 143.528C181.036 143.583 181.112 143.623 181.193 143.648C181.274 143.672 181.359 143.679 181.443 143.669L196.634 142.344C196.718 142.34 196.801 142.319 196.877 142.282C196.953 142.244 197.021 142.192 197.075 142.127C197.13 142.062 197.171 141.987 197.195 141.906C197.219 141.825 197.226 141.739 197.216 141.655L196.528 132.646C196.495 132.486 196.409 132.341 196.284 132.236C196.16 132.13 196.003 132.069 195.84 132.063Z" fill="#31363B"/>
<path d="M223.946 147.167L206.108 149.127C205.909 149.152 205.707 149.135 205.514 149.077C205.322 149.02 205.143 148.924 204.989 148.795C204.835 148.666 204.71 148.506 204.62 148.326C204.53 148.147 204.478 147.95 204.467 147.749L203.038 129.36C203.011 128.967 203.14 128.578 203.398 128.28C203.656 127.982 204.022 127.799 204.414 127.77L222.252 126.923C222.637 126.905 223.013 127.04 223.301 127.297C223.588 127.555 223.762 127.915 223.787 128.3L225.216 145.577C225.238 145.765 225.222 145.955 225.17 146.137C225.118 146.32 225.031 146.489 224.912 146.637C224.794 146.785 224.648 146.908 224.482 146.999C224.316 147.09 224.134 147.147 223.946 147.167Z" fill="#673DE6"/>
<path d="M159.318 144.199L159.636 148.12" stroke="#63737A" stroke-width="1.8" stroke-linecap="round" stroke-linejoin="round"/>
<path d="M157.625 146.319L161.33 146.001" stroke="#63737A" stroke-width="1.8" stroke-linecap="round" stroke-linejoin="round"/>
<path d="M184.672 148.544C184.566 147.485 183.772 146.637 182.819 146.743C182.324 146.827 181.882 147.101 181.586 147.507C181.289 147.913 181.162 148.418 181.231 148.915C181.235 149.16 181.288 149.401 181.387 149.625C181.485 149.849 181.627 150.05 181.805 150.218C181.982 150.386 182.192 150.517 182.42 150.602C182.649 150.688 182.893 150.727 183.137 150.717C183.608 150.596 184.022 150.311 184.303 149.913C184.584 149.515 184.715 149.03 184.672 148.544Z" fill="#31363B"/>
<path d="M187.742 148.226L197.639 147.22" stroke="#31363B" stroke-width="1.8" stroke-linecap="round" stroke-linejoin="round"/>
<path d="M209.76 132.752C209.753 132.309 209.58 131.884 209.277 131.561C208.974 131.237 208.561 131.039 208.12 131.003C207.273 131.056 206.69 131.904 206.743 132.911C206.796 133.918 207.537 134.713 208.384 134.66C209.231 134.607 209.866 133.759 209.76 132.752Z" fill="#31363B"/>
<path d="M212.46 132.593L220.981 132.063" stroke="#31363B" stroke-width="1.8" stroke-linecap="round" stroke-linejoin="round"/>
<path d="M210.237 138.422C210.131 137.416 209.443 136.674 208.596 136.727C207.749 136.78 207.167 137.68 207.22 138.687C207.273 139.694 208.067 140.489 208.861 140.383C209.301 140.302 209.691 140.051 209.949 139.684C210.206 139.318 210.309 138.865 210.237 138.422Z" fill="#31363B"/>
<path d="M212.883 138.21L221.458 137.521" stroke="#31363B" stroke-width="1.8" stroke-linecap="round" stroke-linejoin="round"/>
<path d="M210.713 144.093C210.607 143.086 209.919 142.344 209.072 142.397C208.225 142.45 207.643 143.351 207.696 144.358C207.749 145.365 208.543 146.107 209.337 146.054C209.772 145.963 210.156 145.709 210.412 145.345C210.667 144.981 210.775 144.533 210.713 144.093Z" fill="#31363B"/>
<path d="M213.36 143.828L221.881 142.98" stroke="#31363B" stroke-width="1.8" stroke-linecap="round" stroke-linejoin="round"/>
<path d="M151.167 117.754L147.727 117.807C147.57 117.799 147.421 117.736 147.305 117.63C147.189 117.524 147.113 117.38 147.092 117.224L146.827 113.621C146.824 113.537 146.838 113.453 146.869 113.374C146.9 113.296 146.947 113.224 147.006 113.165C147.066 113.105 147.137 113.058 147.216 113.027C147.294 112.996 147.378 112.982 147.462 112.985H150.903C151.06 112.993 151.209 113.056 151.325 113.162C151.44 113.269 151.516 113.412 151.538 113.568L151.802 117.119C151.782 117.28 151.709 117.431 151.594 117.546C151.479 117.661 151.329 117.734 151.167 117.754Z" fill="#31363B"/>
<path d="M154.872 112.985L166.781 112.932" stroke="#31363B" stroke-width="1.8" stroke-linecap="round" stroke-linejoin="round"/>
<path d="M155.084 116.059L166.993 115.953" stroke="#31363B" stroke-width="1.8" stroke-linecap="round" stroke-linejoin="round"/>
<path d="M208.278 116.907L205.579 116.96C205.493 116.947 205.413 116.911 205.348 116.854C205.282 116.798 205.234 116.724 205.208 116.642L204.944 113.197C204.942 113.148 204.951 113.099 204.969 113.053C204.987 113.008 205.014 112.966 205.049 112.931C205.084 112.897 205.125 112.869 205.171 112.851C205.216 112.833 205.265 112.824 205.314 112.826H208.014C208.099 112.838 208.179 112.875 208.245 112.931C208.311 112.987 208.359 113.061 208.384 113.144L208.649 116.536C208.643 116.632 208.602 116.723 208.533 116.791C208.465 116.859 208.375 116.9 208.278 116.907Z" fill="#31363B"/>
<path d="M210.819 112.773H219.658" stroke="#31363B" stroke-width="1.8" stroke-linecap="round" stroke-linejoin="round"/>
<path d="M211.084 115.476L219.87 115.37" stroke="#31363B" stroke-width="1.8" stroke-linecap="round" stroke-linejoin="round"/>
<path d="M205.473 119.874L220.187 119.503" stroke="#31363B" stroke-width="1.8" stroke-linecap="round" stroke-linejoin="round"/>
<path d="M151.749 125.969L148.309 126.075C148.149 126.075 147.995 126.015 147.878 125.907C147.76 125.799 147.687 125.651 147.674 125.492L147.409 121.888C147.404 121.808 147.415 121.727 147.442 121.651C147.469 121.575 147.511 121.505 147.565 121.446C147.62 121.387 147.685 121.339 147.759 121.306C147.832 121.272 147.911 121.254 147.991 121.252L151.432 121.146C151.589 121.154 151.738 121.217 151.854 121.323C151.97 121.43 152.045 121.573 152.067 121.729L152.332 125.28C152.342 125.448 152.287 125.613 152.179 125.741C152.07 125.87 151.916 125.951 151.749 125.969Z" fill="#31363B"/>
<path d="M155.454 121.093L167.364 120.775" stroke="#31363B" stroke-width="1.8" stroke-linecap="round" stroke-linejoin="round"/>
<path d="M155.666 124.22L167.575 123.849" stroke="#31363B" stroke-width="1.8" stroke-linecap="round" stroke-linejoin="round"/>
<path d="M160.43 100.319L142.593 99.7892C142.309 99.7821 142.038 99.6697 141.833 99.4738C141.627 99.2779 141.502 99.0126 141.481 98.7293L141.269 95.9206C141.257 95.7618 141.277 95.602 141.331 95.4519C141.384 95.3018 141.468 95.1646 141.578 95.0495C141.688 94.9344 141.821 94.8439 141.969 94.7839C142.116 94.724 142.275 94.6959 142.434 94.7017L160.271 95.4436C160.555 95.4507 160.826 95.5632 161.031 95.759C161.236 95.9549 161.362 96.2203 161.383 96.5035L161.594 99.1003C161.603 99.2581 161.579 99.4161 161.525 99.5644C161.47 99.7127 161.385 99.8482 161.276 99.9625C161.167 100.077 161.035 100.167 160.89 100.229C160.744 100.29 160.588 100.321 160.43 100.319Z" fill="#EDA92D"/>
<path d="M178.479 112.879L195.311 112.826" stroke="#31363B" stroke-width="1.8" stroke-linecap="round" stroke-linejoin="round"/>
<path d="M178.691 115.847L195.522 115.635" stroke="#31363B" stroke-width="1.8" stroke-linecap="round" stroke-linejoin="round"/>
<path d="M179.008 120.51L188.059 120.298" stroke="#31363B" stroke-width="1.8" stroke-linecap="round" stroke-linejoin="round"/>
<path d="M221.299 100.054C221.292 99.6838 221.156 99.3275 220.914 99.0469C220.673 98.7663 220.341 98.579 219.976 98.5173C219.341 98.4643 218.811 99.1532 218.917 99.9482C218.908 100.323 219.038 100.688 219.283 100.972C219.527 101.256 219.869 101.439 220.24 101.485C220.876 101.538 221.352 100.849 221.299 100.054Z" fill="#63737A"/>
<path d="M216.588 99.8952C216.587 99.523 216.454 99.1634 216.211 98.8815C215.968 98.5996 215.633 98.414 215.265 98.3583C214.577 98.3053 214.101 98.9943 214.154 99.8422C214.155 100.223 214.296 100.589 214.55 100.873C214.803 101.156 215.152 101.336 215.53 101.379C216.165 101.379 216.641 100.69 216.588 99.8952Z" fill="#63737A"/>
<path d="M211.719 99.6832C211.708 99.2998 211.566 98.9318 211.315 98.6419C211.064 98.352 210.72 98.1582 210.343 98.0934C209.654 98.0404 209.125 98.7293 209.178 99.5772C209.189 99.9607 209.331 100.329 209.582 100.619C209.833 100.908 210.177 101.102 210.554 101.167C211.295 101.22 211.772 100.531 211.719 99.6832Z" fill="#63737A"/>
<path d="M242.789 106.996L219.288 106.573C218.828 106.573 218.386 106.398 218.051 106.083C217.717 105.767 217.515 105.336 217.488 104.877L215.371 78.9622C215.358 78.757 215.388 78.5513 215.461 78.3588C215.533 78.1664 215.646 77.9916 215.791 77.8461C215.936 77.7007 216.111 77.5879 216.303 77.5154C216.495 77.4428 216.701 77.4122 216.906 77.4254L240.513 79.9161C240.943 79.9569 241.345 80.1501 241.645 80.461C241.946 80.7719 242.126 81.18 242.153 81.612L244.218 105.407C244.239 105.607 244.218 105.81 244.156 106.002C244.094 106.194 243.992 106.371 243.858 106.521C243.723 106.671 243.558 106.791 243.374 106.873C243.189 106.955 242.99 106.997 242.789 106.996Z" fill="#D5C7FF"/>
<path d="M244.059 106.573L220.558 106.149C220.099 106.149 219.656 105.974 219.322 105.659C218.987 105.344 218.785 104.912 218.758 104.453L216.641 78.5383C216.628 78.333 216.659 78.1273 216.731 77.9349C216.804 77.7424 216.916 77.5676 217.061 77.4222C217.207 77.2768 217.381 77.164 217.574 77.0914C217.766 77.0189 217.971 76.9882 218.176 77.0014L241.783 79.4922C242.213 79.533 242.615 79.7262 242.916 80.0371C243.216 80.3479 243.397 80.7561 243.424 81.188L245.488 104.983C245.505 105.182 245.48 105.383 245.416 105.573C245.353 105.763 245.251 105.938 245.117 106.087C244.983 106.236 244.82 106.356 244.638 106.439C244.456 106.523 244.259 106.568 244.059 106.573Z" fill="#673DE6"/>
<path d="M226.91 81.824L239.348 82.9899" stroke="#F2F2F2" stroke-width="1.8" stroke-linecap="round" stroke-linejoin="round"/>
<path d="M227.121 84.3677L239.56 85.4276" stroke="#F2F2F2" stroke-width="1.8" stroke-linecap="round" stroke-linejoin="round"/>
<path d="M227.598 90.1971L240.089 91.0451" stroke="#F2F2F2" stroke-width="1.8" stroke-linecap="round" stroke-linejoin="round"/>
<path d="M227.809 92.6879L240.248 93.4298" stroke="#F2F2F2" stroke-width="1.8" stroke-linecap="round" stroke-linejoin="round"/>
<path d="M228.339 98.5703L240.777 99.1003" stroke="#F2F2F2" stroke-width="1.8" stroke-linecap="round" stroke-linejoin="round"/>
<path d="M228.55 101.061L240.989 101.485" stroke="#F2F2F2" stroke-width="1.8" stroke-linecap="round" stroke-linejoin="round"/>
<path d="M222.622 83.2548L223.257 84.0498L224.157 82.8309" stroke="white" stroke-width="1.8" stroke-linecap="round" stroke-linejoin="round"/>
<path d="M223.31 91.734L223.946 92.4759L224.898 91.257" stroke="white" stroke-width="1.8" stroke-linecap="round" stroke-linejoin="round"/>
<path d="M223.998 100.054L224.687 100.796L225.586 99.5242" stroke="white" stroke-width="1.8" stroke-linecap="round" stroke-linejoin="round"/>
<path d="M253.957 144.252C253.957 144.252 250.675 151.088 250.41 155.434C250.146 159.779 254.751 177.215 262.267 190.516C262.267 190.516 269.359 188.185 269.359 186.012C269.359 183.839 265.178 158.136 265.442 157.395C265.707 156.653 268.618 151.194 268.618 148.862C268.618 146.531 255.068 141.708 253.957 144.252Z" fill="#F4C2C9"/>
<path d="M268.618 148.862C268.618 146.531 255.121 141.708 254.01 144.252C254.01 144.252 253.586 145.206 253.004 146.584C257.291 149.922 261.896 152.784 267.136 153.738C267.877 152.042 268.618 150.028 268.618 148.862Z" fill="#E26E85"/>
<path d="M268.036 115.211C268.036 115.211 262.743 117.013 258.72 126.128C254.698 135.243 250.41 142.874 250.41 142.874C250.41 142.874 257.027 149.445 265.495 152.784C273.964 156.229 274.282 116.059 268.036 115.211Z" fill="#FC5185"/>
<path d="M251.892 140.171C251.892 140.171 260.943 147.59 269.359 150.823" stroke="#282828" stroke-width="1.8" stroke-linecap="round" stroke-linejoin="round"/>
<path d="M285.714 312.881C285.714 312.881 285.238 324.01 285.344 325.07C285.45 326.13 281.639 328.409 276.928 328.25C272.217 328.091 271.794 326.713 271.794 326.713C271.794 326.713 270.735 314.683 270.629 312.987C270.524 311.291 284.762 310.602 285.714 312.881Z" fill="#F4C2C9"/>
<path d="M285.45 319.294C285.556 316.114 285.714 312.881 285.714 312.881C284.762 310.602 270.524 311.291 270.629 312.987C270.682 313.782 270.947 316.75 271.159 319.718C275.34 321.784 280.845 321.254 285.45 319.294Z" fill="#22272E"/>
<path d="M285.344 324.752C285.344 324.752 285.767 327.879 285.926 331.27C286.085 334.662 286.614 340.863 286.032 341.922C285.45 342.982 282.221 343.883 274.652 344.466C267.083 345.049 260.097 344.519 258.879 343.565C257.662 342.611 258.032 341.18 259.197 340.068C260.361 338.955 264.966 334.026 266.872 332.012C269.359 329.363 271.159 326.66 271.159 326.342C271.318 325.07 271.582 325.07 271.582 325.07C271.582 325.07 271.9 325.865 272.323 325.812C272.747 325.759 273.329 323.374 275.87 323.957C278.41 324.54 279.469 326.289 280.421 326.289C281.374 326.289 283.968 325.918 285.344 324.752Z" fill="#22272E"/>
<path d="M305.563 315.107C305.563 315.107 306.992 326.554 307.257 327.243C307.521 327.932 310.168 329.84 314.296 329.628C318.425 329.416 320.013 328.197 320.172 327.932C320.33 327.667 320.066 314.577 319.96 313.729C319.854 312.881 306.516 313.093 305.563 315.107Z" fill="#F4C2C9"/>
<path d="M320.119 319.612C320.066 316.697 319.96 313.994 319.907 313.623C319.748 312.775 306.516 313.04 305.51 315.054C305.51 315.054 305.828 317.598 306.198 320.354C310.814 321.443 315.645 321.185 320.119 319.612Z" fill="#22272E"/>
<path d="M307.045 326.236C306.931 327.061 306.895 327.895 306.939 328.727C306.992 329.416 307.045 330.37 307.045 331.535C307.098 333.973 307.31 342.399 307.892 343.618C308.474 344.837 315.143 345.844 320.172 345.897C325.2 345.95 328.905 344.625 329.487 343.247C330.07 341.869 329.752 339.856 328.005 337.63C326.259 335.404 322.236 331.959 321.76 330.317C321.367 328.914 320.853 327.549 320.225 326.236C319.861 326.746 319.368 327.149 318.796 327.402C318.107 327.614 317.102 324.752 314.932 324.646C312.762 324.54 311.809 325.388 310.433 327.402C309.196 327.464 307.983 327.046 307.045 326.236Z" fill="#22272E"/>
<path d="M260.626 176.897C259.716 181.376 259.08 185.906 258.72 190.463C258.085 198.254 260.308 246.532 260.626 250.294C260.943 254.057 262.161 275.52 263.537 285.96C264.648 294.545 263.854 311.874 266.448 314.312C269.042 316.75 276.981 318.075 281.903 316.75C286.826 315.425 289.102 312.987 289.684 310.973C290.266 308.96 287.937 293.644 288.096 285.854C288.255 278.064 288.096 255.064 287.832 249.605C287.832 249.605 290.002 221.73 292.595 215.371C295.189 209.011 298.947 185.588 291.748 178.804C284.444 172.021 261.261 175.784 260.626 176.897Z" fill="#22272E"/>
<path d="M272.217 179.97C272.217 179.97 272.164 190.463 272.588 198.307C272.665 200.691 272.93 203.065 273.382 205.408C274.705 210.919 277.563 211.343 279.733 212.615C281.903 213.887 289.684 245.101 292.86 253.209C292.86 253.209 295.295 271.863 297.2 282.992C299.106 294.121 298.788 307.582 300.217 312.192C301.646 316.803 310.009 317.704 314.085 317.333C318.16 316.962 323.612 315.372 323.453 310.602C323.294 305.833 322.501 292.266 321.812 280.713C321.124 269.161 319.801 251.937 319.484 247.91C319.484 247.91 317.896 228.832 317.049 219.027C316.202 209.223 316.678 199.207 315.408 182.302C314.032 165.344 272.164 170.537 272.217 179.97Z" fill="#22272E"/>
<path d="M272.588 198.307C272.665 200.691 272.93 203.065 273.382 205.408C274.705 210.919 277.563 211.343 279.733 212.615C281.904 213.887 289.684 245.101 292.86 253.209" stroke="#63737A" stroke-width="1.8" stroke-linecap="round" stroke-linejoin="round"/>
<path d="M279.733 212.615C279.733 212.615 273.541 209.435 270.788 210.601" stroke="#63737A" stroke-width="1.8" stroke-linecap="round" stroke-linejoin="round"/>
<path d="M270.259 258.032C274.118 258.032 277.246 254.591 277.246 250.347C277.246 246.104 274.118 242.663 270.259 242.663C266.4 242.663 263.272 246.104 263.272 250.347C263.272 254.591 266.4 258.032 270.259 258.032Z" stroke="#63737A" stroke-width="1.8" stroke-linecap="round" stroke-linejoin="round"/>
<path d="M306.78 257.555C310.756 257.555 313.979 254.114 313.979 249.87C313.979 245.627 310.756 242.186 306.78 242.186C302.805 242.186 299.582 245.627 299.582 249.87C299.582 254.114 302.805 257.555 306.78 257.555Z" stroke="#63737A" stroke-width="1.8" stroke-linecap="round" stroke-linejoin="round"/>
<path d="M273.329 320.512C273.245 319.986 273.245 319.449 273.329 318.923" stroke="#63737A" stroke-width="1.8" stroke-linecap="round" stroke-linejoin="round"/>
<path d="M277.722 321.201V318.923" stroke="#63737A" stroke-width="1.8" stroke-linecap="round" stroke-linejoin="round"/>
<path d="M283.068 320.142C283.068 320.142 283.121 318.817 283.068 318.234" stroke="#63737A" stroke-width="1.8" stroke-linecap="round" stroke-linejoin="round"/>
<path d="M308.474 320.83C308.474 320.83 308.21 319.4 308.21 318.976" stroke="#63737A" stroke-width="1.8" stroke-linecap="round" stroke-linejoin="round"/>
<path d="M313.767 321.042C313.821 320.284 313.821 319.522 313.767 318.764" stroke="#63737A" stroke-width="1.8" stroke-linecap="round" stroke-linejoin="round"/>
<path d="M318.319 320.195C318.375 319.595 318.375 318.992 318.319 318.393" stroke="#63737A" stroke-width="1.8" stroke-linecap="round" stroke-linejoin="round"/>
<path d="M268.354 331.217C268.354 331.217 272.376 327.985 280.263 332.436" stroke="white" stroke-width="1.8" stroke-linecap="round" stroke-linejoin="round"/>
<path d="M265.337 335.298C265.337 335.298 270.312 331.323 277.722 336.146" stroke="white" stroke-width="1.8" stroke-linecap="round" stroke-linejoin="round"/>
<path d="M322.977 333.549C322.977 333.549 318.16 331.429 311.65 334.874" stroke="white" stroke-width="1.8" stroke-linecap="round" stroke-linejoin="round"/>
<path d="M325.147 337.153C325.147 337.153 319.589 334.715 312.867 339.114" stroke="white" stroke-width="1.8" stroke-linecap="round" stroke-linejoin="round"/>
<path d="M293.654 113.356C293.654 113.356 296.3 114.151 301.911 114.257C307.521 114.363 313.926 116.006 316.414 119.132C318.901 122.259 319.695 145.312 319.325 155.752C318.954 166.192 311.491 181.719 311.491 181.719C311.491 181.719 293.654 183.733 279.045 183.044C264.437 182.355 260.943 179.122 259.938 178.116C258.932 177.109 258.35 174.671 258.932 173.611C259.514 172.551 262.372 164.337 263.431 156.441C264.49 148.544 262.267 137.521 263.272 127.823C264.278 118.125 268.036 115.264 268.036 115.264C268.036 115.264 272.747 113.674 280.898 113.409C285.146 113.173 289.404 113.155 293.654 113.356Z" fill="#855FF8"/>
<path d="M272.694 111.236C272.694 111.236 265.866 121.729 268.036 143.828C270.206 165.927 260.679 177.321 265.019 187.496" stroke="#673DE6" stroke-width="1.8" stroke-linecap="round" stroke-linejoin="round"/>
<path d="M309.586 113.197C309.586 113.197 301.276 114.575 299.212 128.618C297.147 142.662 302.599 161.422 301.593 171.968C300.588 182.514 297.782 188.714 297.782 188.714" stroke="#673DE6" stroke-width="1.8" stroke-linecap="round" stroke-linejoin="round"/>
<path d="M310.486 185.323C310.486 185.323 313.291 158.878 310.486 144.252C307.68 129.625 314.032 116.907 321.177 118.655" stroke="#673DE6" stroke-width="1.8" stroke-linecap="round" stroke-linejoin="round"/>
<path d="M285.926 186.436C285.926 186.436 288.255 169.265 287.461 153.897C287.144 148.12 283.809 119.768 296.142 110.812" stroke="#673DE6" stroke-width="1.8" stroke-linecap="round" stroke-linejoin="round"/>
<path d="M272.694 185.323C272.694 185.323 276.346 163.701 276.134 150.982C275.922 138.263 274.864 111.342 281.268 106.996" stroke="#673DE6" stroke-width="1.8" stroke-linecap="round" stroke-linejoin="round"/>
<path d="M292.86 141.284C294.76 141.284 296.3 139.742 296.3 137.839C296.3 135.937 294.76 134.395 292.86 134.395C290.96 134.395 289.42 135.937 289.42 137.839C289.42 139.742 290.96 141.284 292.86 141.284Z" fill="#F8AB5D"/>
<path d="M281.321 111.342C279.892 111.395 278.781 112.243 277.775 113.25C277.048 113.959 276.534 114.859 276.293 115.847C274.282 125.598 277.352 137.363 281.268 137.257C286.191 137.098 292.807 128.141 297.994 117.966C300.111 113.78 296.036 110.865 293.654 110.865C291.801 110.812 284.285 111.183 281.321 111.342Z" fill="#EDA92D"/>
<path d="M303.922 90.7271C303.792 93.7302 302.938 96.6573 301.435 99.2592C298.947 103.499 295.93 105.725 294.924 107.632C293.919 109.54 294.183 104.559 294.924 102.174C295.665 99.7892 300.058 87.0704 303.922 90.7271Z" fill="#22272E"/>
<path d="M280.21 106.838C280.21 106.838 279.628 111.978 279.257 113.939C278.886 115.9 278.04 121.04 284.603 121.358C290.478 121.676 293.654 117.119 294.818 114.893C295.181 114.229 295.347 113.475 295.295 112.72C295.136 110.388 294.818 104.665 294.977 100.001C295.189 94.0658 280.21 102.651 280.21 106.838Z" fill="#F4C2C9"/>
<path d="M291.854 107.208C288.731 109.699 284.127 110.865 279.786 110.229C279.628 111.607 279.416 113.091 279.257 113.939C279.204 114.204 279.151 114.522 279.098 114.893C284.444 115.158 290.531 112.508 291.854 107.208Z" fill="#E26E85"/>
<path d="M273.964 87.7594C273.964 87.7594 272.535 89.8262 272.747 91.416C272.958 93.0059 275.975 98.3583 277.51 98.1993C279.045 98.0404 280.633 91.469 278.834 89.2962C277.034 87.1234 274.546 86.7525 273.964 87.7594Z" fill="#22272E"/>
<path d="M275.181 90.7801C275.246 93.4404 275.069 96.1011 274.652 98.7293C273.964 102.969 273.488 109.328 279.786 111.077C286.085 112.826 293.495 110.441 295.824 101.75C298.153 93.0588 299.847 84.2617 291.801 81.718C283.756 79.1742 274.229 82.4599 275.181 90.7801Z" fill="#F4C2C9"/>
<path d="M277.881 95.0197C278.03 95.6525 277.993 96.315 277.775 96.9275C277.669 97.2368 277.508 97.5241 277.299 97.7754C277.206 97.9099 277.1 98.0343 276.981 98.1463C276.928 98.1993 276.875 98.3053 276.822 98.3583C276.769 98.5129 276.769 98.6807 276.822 98.8353C276.905 99.0685 277.031 99.2842 277.193 99.4712C277.553 99.9091 277.982 100.285 278.463 100.584C277.811 100.628 277.166 100.42 276.663 100.001C276.367 99.7806 276.13 99.4891 275.975 99.1532C275.884 98.9631 275.836 98.7548 275.836 98.5438C275.836 98.3328 275.884 98.1245 275.975 97.9344C276.054 97.7453 276.182 97.5807 276.346 97.4574C276.452 97.3514 276.558 97.2984 276.611 97.1924C276.786 96.9935 276.945 96.7809 277.087 96.5565C277.414 96.079 277.681 95.5628 277.881 95.0197Z" fill="#22272E"/>
<path d="M295.506 97.4574C294.884 96.326 294.489 95.0839 294.342 93.8008C294.024 91.363 291.431 91.522 290.213 87.0174C288.996 82.5129 286.032 88.0773 281.321 90.0911C276.611 92.1049 272.905 88.8723 271 85.2686C269.095 81.665 272.323 78.4853 274.493 77.0014C276.663 75.5176 278.939 77.9023 283.174 76.8424C287.408 75.7825 294.236 74.4577 297.518 79.2272C300.799 83.9967 304.187 85.1626 303.975 90.3561C303.763 95.5496 297.677 101.326 297.306 101.379C296.936 101.432 295.506 97.4574 295.506 97.4574Z" fill="#22272E"/>
<path d="M284.338 92.4759C284.179 92.052 284.021 91.257 284.603 90.8331C285.185 90.4091 286.508 90.5681 287.779 91.363C288.89 92.052 289.208 93.1648 288.467 93.0589C287.726 92.9529 287.144 92.6349 286.244 92.5819C285.344 92.5289 284.497 92.8469 284.338 92.4759Z" fill="#22272E"/>
<path d="M277.987 91.893C278.076 91.6411 278.108 91.3725 278.081 91.1066C278.053 90.8407 277.967 90.5843 277.828 90.3561C277.51 89.9322 276.663 89.9852 275.87 90.5681C275.181 91.098 274.97 92.105 275.446 92.052C275.894 91.9217 276.356 91.8505 276.822 91.84C277.404 91.893 277.881 92.2109 277.987 91.893Z" fill="#22272E"/>
<path d="M274.335 101.432C274.335 101.432 274.282 102.068 275.181 102.227C276.081 102.386 276.187 101.008 277.722 100.796C278.675 100.69 282.009 100.955 283.386 102.227C284.762 103.499 286.667 104.983 289.42 104.135C292.172 103.287 293.813 99.4182 294.342 93.8008C294.818 88.6603 296.724 93.6418 296.724 94.8607C296.724 95.7086 295.93 94.4897 294.977 97.9344C294.554 99.4712 294.977 103.817 293.336 106.996C292.066 109.434 288.52 111.925 284.021 112.243C279.522 112.561 275.817 110.706 274.705 107.738C273.594 104.877 274.017 101.644 274.335 101.432Z" fill="#22272E"/>
<path d="M276.505 95.8676C276.708 95.8883 276.912 95.8275 277.07 95.6983C277.229 95.5692 277.33 95.3823 277.352 95.1787L277.404 94.7547C277.425 94.551 277.364 94.3473 277.235 94.1884C277.106 94.0294 276.92 93.9282 276.716 93.9068C276.513 93.886 276.31 93.9469 276.151 94.076C275.992 94.2052 275.891 94.392 275.87 94.5957L275.817 95.0197C275.796 95.2234 275.857 95.4271 275.986 95.586C276.115 95.7449 276.301 95.8462 276.505 95.8676Z" fill="#22272E"/>
<path d="M284.92 96.3975C285.124 96.4183 285.327 96.3574 285.486 96.2283C285.645 96.0992 285.746 95.9123 285.767 95.7086L285.82 95.2846C285.841 95.0809 285.78 94.8773 285.651 94.7183C285.522 94.5594 285.336 94.4581 285.132 94.4367C284.929 94.416 284.725 94.4768 284.567 94.606C284.408 94.7351 284.307 94.922 284.285 95.1257L284.232 95.5496C284.213 95.6518 284.216 95.757 284.242 95.8578C284.267 95.9586 284.315 96.0527 284.38 96.1334C284.446 96.2141 284.528 96.2796 284.621 96.3252C284.714 96.3708 284.817 96.3955 284.92 96.3975Z" fill="#22272E"/>
<path d="M294.924 97.9344C294.924 97.9344 296.353 94.7547 298.841 95.1257C301.329 95.4966 300.111 102.227 295.506 102.174" fill="#F4C2C9"/>
<path d="M298.682 97.5104C298.557 97.37 298.414 97.2454 298.259 97.1395C298.1 97.0865 298.153 97.1924 298.047 97.2454C298.047 97.2984 297.941 97.7224 297.888 98.0934C297.838 98.5016 297.712 98.897 297.518 99.2592C297.426 99.485 297.281 99.6851 297.094 99.8422C297.001 99.9216 296.887 99.9735 296.765 99.9922C296.644 100.011 296.52 99.9957 296.406 99.9482C296.487 99.9057 296.558 99.8456 296.613 99.7722C296.668 99.6989 296.706 99.6141 296.724 99.5242C296.777 99.3652 296.777 99.2062 296.83 99.0473C296.86 98.6559 296.913 98.2666 296.988 97.8814L297.147 97.2454L297.306 96.9275C297.359 96.8745 297.359 96.8215 297.465 96.7685C297.571 96.7155 297.624 96.6625 297.677 96.6095C297.825 96.5375 297.988 96.5012 298.153 96.5035C298.318 96.5466 298.465 96.6391 298.576 96.7685C298.643 96.8787 298.686 97.0012 298.705 97.1287C298.723 97.2561 298.715 97.386 298.682 97.5104Z" fill="#22272E"/>
<path d="M280.21 104.4C281.113 104.775 282.099 104.903 283.068 104.771" stroke="#F4C2C9" stroke-width="1.8" stroke-linecap="round" stroke-linejoin="round"/>
<path d="M277.64 94.3349C277.893 91.6836 276.683 89.399 274.936 89.2322C273.19 89.0654 271.57 91.0796 271.318 93.7309C271.065 96.3823 272.276 98.6669 274.022 98.8336C275.768 99.0004 277.388 96.9863 277.64 94.3349Z" stroke="#22272E" stroke-width="1.8" stroke-linecap="round" stroke-linejoin="round"/>
<path d="M289.41 95.3653C289.663 92.7139 288.051 90.3911 285.81 90.177C283.57 89.963 281.548 91.9388 281.296 94.5902C281.043 97.2416 282.655 99.5644 284.895 99.7785C287.136 99.9925 289.157 98.0167 289.41 95.3653Z" stroke="#22272E" stroke-width="1.8" stroke-linecap="round" stroke-linejoin="round"/>
<path d="M277.51 95.1256C277.51 95.1256 278.41 93.4298 281.268 95.4436" stroke="#22272E" stroke-width="1.8" stroke-linecap="round" stroke-linejoin="round"/>
<path d="M289.367 95.3906L295.348 96.6625" stroke="#22272E" stroke-width="1.8" stroke-linecap="round" stroke-linejoin="round"/>
<path d="M312.285 153.897L315.09 159.567C315.09 159.567 312.126 163.595 308.951 171.226C305.775 178.857 303.446 188.291 301.276 190.993C301.276 190.993 303.393 196.081 308.58 198.307C308.58 198.307 318.69 183.468 323.295 177.003C327.899 170.537 332.293 162.27 331.975 158.136C331.499 152.042 326.894 143.033 326.47 140.595C326.047 138.157 312.391 146.849 312.285 153.897Z" fill="#F4C2C9"/>
<path d="M326.417 140.595C326.047 138.21 312.391 146.849 312.285 153.897L312.709 154.692C317.523 151.124 322.937 148.45 328.693 146.796C327.582 144.04 326.576 141.655 326.417 140.595Z" fill="#E26E85"/>
<path d="M303.922 185.482C304.663 186.754 307.204 190.145 313.132 191.523C313.177 191.532 313.218 191.552 313.253 191.581C313.288 191.61 313.315 191.648 313.33 191.69C313.346 191.733 313.351 191.779 313.344 191.824C313.337 191.869 313.319 191.911 313.291 191.947L310.591 195.604C310.538 195.71 310.38 195.71 310.274 195.71C303.658 193.696 301.911 190.357 301.646 189.721C301.62 189.692 301.606 189.654 301.606 189.615C301.606 189.576 301.62 189.539 301.646 189.509L303.446 185.535C303.552 185.27 303.816 185.27 303.922 185.482Z" fill="#22272E"/>
<path d="M306.936 193.342C307.666 192.148 307.331 190.613 306.188 189.913C305.045 189.213 303.527 189.613 302.797 190.807C302.068 192.001 302.403 193.537 303.546 194.237C304.689 194.937 306.207 194.537 306.936 193.342Z" fill="white"/>
<path d="M313.82 118.708C314.439 118.601 315.075 118.662 315.662 118.886C316.249 119.11 316.764 119.488 317.155 119.98C318.372 121.517 320.383 124.485 322.871 129.572C327.053 138.104 329.964 143.722 329.964 143.722C329.964 143.722 315.461 151.565 312.285 153.897C312.285 153.897 306.41 143.987 304.504 139.853C302.652 135.932 303.181 120.669 313.82 118.708Z" fill="#FC5185"/>
<path d="M310.486 150.823C316.07 146.802 322.046 143.358 328.323 140.542" stroke="#282828" stroke-width="1.8" stroke-linecap="round" stroke-linejoin="round"/>
<path d="M299.212 187.496C300.184 190.441 301.843 193.112 304.053 195.287C306.262 197.462 308.957 199.078 311.915 200.002" stroke="#63737A" stroke-width="1.8" stroke-linecap="round" stroke-linejoin="round"/>
<path d="M315.09 159.567C316.231 158.29 317.754 157.417 319.431 157.077" stroke="#E26E85" stroke-width="1.8" stroke-linecap="round" stroke-linejoin="round"/>
<path d="M393.532 172.816L346.689 167.04C345.961 166.952 345.297 166.58 344.841 166.004C344.385 165.429 344.174 164.696 344.255 163.966L349.23 117.436C349.33 116.561 349.716 115.743 350.329 115.11C350.942 114.477 351.746 114.065 352.618 113.939L401.101 107.367C401.527 107.308 401.962 107.348 402.37 107.483C402.779 107.619 403.151 107.846 403.457 108.148C403.764 108.45 403.998 108.819 404.14 109.226C404.282 109.632 404.329 110.066 404.277 110.494L397.079 170.113C396.96 170.94 396.522 171.686 395.858 172.192C395.195 172.698 394.359 172.922 393.532 172.816Z" fill="#63737A"/>
<path d="M391.944 172.657L345.102 166.828C344.373 166.74 343.709 166.368 343.253 165.792C342.797 165.217 342.586 164.484 342.667 163.754L347.642 117.224C347.742 116.349 348.128 115.531 348.741 114.898C349.354 114.265 350.159 113.853 351.03 113.727L399.513 107.155C399.94 107.096 400.374 107.136 400.782 107.271C401.191 107.407 401.563 107.634 401.87 107.936C402.176 108.238 402.41 108.607 402.552 109.014C402.694 109.421 402.741 109.854 402.689 110.282L395.491 169.901C395.378 170.734 394.944 171.49 394.28 172.006C393.617 172.521 392.778 172.755 391.944 172.657Z" fill="#22272E"/>
<path d="M390.198 129.413L353.517 131.268C353.371 131.28 353.224 131.258 353.086 131.205C352.949 131.153 352.825 131.07 352.724 130.964C352.623 130.857 352.546 130.729 352.5 130.589C352.454 130.449 352.44 130.301 352.459 130.155L353.359 121.941C353.384 121.711 353.487 121.496 353.65 121.332C353.814 121.168 354.028 121.065 354.258 121.04L391.256 117.383C391.411 117.368 391.567 117.388 391.712 117.442C391.858 117.496 391.989 117.583 392.096 117.695C392.203 117.807 392.283 117.943 392.33 118.091C392.377 118.239 392.39 118.396 392.368 118.549L391.15 128.618C391.15 128.989 390.727 129.36 390.198 129.413Z" fill="#EDA92D"/>
<path d="M362.886 123.902L387.181 121.941" stroke="#22272E" stroke-width="1.8" stroke-linecap="round" stroke-linejoin="round"/>
<path d="M362.568 127.029L375.642 126.128" stroke="#22272E" stroke-width="1.8" stroke-linecap="round" stroke-linejoin="round"/>
<path d="M358.669 126.484C359.14 125.608 358.939 124.582 358.218 124.193C357.498 123.804 356.532 124.199 356.06 125.075C355.588 125.951 355.79 126.976 356.51 127.365C357.23 127.754 358.197 127.359 358.669 126.484Z" fill="#31363B"/>
<path d="M388.133 146.213L351.877 145.577C351.737 145.57 351.601 145.536 351.475 145.476C351.349 145.416 351.237 145.333 351.143 145.229C351.05 145.126 350.978 145.005 350.931 144.874C350.884 144.742 350.864 144.603 350.871 144.464L351.771 136.303C351.792 136.052 351.908 135.82 352.095 135.652C352.282 135.485 352.526 135.395 352.776 135.402L389.298 134.236C389.446 134.235 389.593 134.266 389.729 134.325C389.865 134.385 389.987 134.473 390.086 134.583C390.186 134.693 390.262 134.822 390.308 134.963C390.355 135.105 390.371 135.254 390.356 135.402L389.192 145.365C389.137 145.605 389.003 145.819 388.81 145.973C388.618 146.127 388.38 146.212 388.133 146.213Z" fill="#FC5185"/>
<path d="M361.245 138.846L385.275 138.528" stroke="#22272E" stroke-width="1.8" stroke-linecap="round" stroke-linejoin="round"/>
<path d="M360.875 141.92H373.842" stroke="#22272E" stroke-width="1.8" stroke-linecap="round" stroke-linejoin="round"/>
<path d="M357.107 141.13C357.539 140.234 357.313 139.229 356.603 138.885C355.892 138.541 354.966 138.989 354.533 139.885C354.101 140.781 354.326 141.786 355.037 142.13C355.748 142.474 356.674 142.026 357.107 141.13Z" fill="#31363B"/>
<path d="M386.122 162.853L350.289 159.779C350.017 159.752 349.767 159.622 349.589 159.414C349.412 159.207 349.321 158.939 349.336 158.666L350.236 150.558C350.26 150.299 350.384 150.06 350.582 149.892C350.78 149.724 351.035 149.64 351.294 149.657L387.392 150.982C387.536 150.989 387.677 151.024 387.807 151.087C387.937 151.15 388.052 151.239 388.146 151.348C388.24 151.457 388.311 151.585 388.354 151.722C388.398 151.86 388.413 152.005 388.398 152.148L387.234 162.005C387.175 162.253 387.032 162.474 386.829 162.628C386.627 162.783 386.377 162.862 386.122 162.853Z" fill="#673DE6"/>
<path d="M359.604 153.685L383.317 154.957" stroke="#22272E" stroke-width="1.8" stroke-linecap="round" stroke-linejoin="round"/>
<path d="M359.234 156.706L372.043 157.606" stroke="#22272E" stroke-width="1.8" stroke-linecap="round" stroke-linejoin="round"/>
<path d="M355.582 155.295C355.973 154.381 355.703 153.387 354.977 153.076C354.252 152.764 353.346 153.254 352.955 154.168C352.563 155.083 352.834 156.077 353.56 156.388C354.285 156.699 355.191 156.21 355.582 155.295Z" fill="#31363B"/>
</g>
<defs>
<clipPath id="clip0_12_179">
<rect width="542" height="407" fill="white"/>
</clipPath>
</defs>
</svg>
