<svg width="32" height="32" viewBox="0 0 32 32" fill="none" xmlns="http://www.w3.org/2000/svg">
<g clip-path="url(#clip0_17_88)">
<path d="M32.04 6.67997C30.8575 7.20497 29.59 7.55747 28.2575 7.71747C29.6175 6.90247 30.6625 5.61247 31.1525 4.07747C29.8825 4.82997 28.47 5.37747 26.9725 5.67247C25.7725 4.39247 24.0625 3.59497 22.17 3.59497C18.535 3.59497 15.5875 6.53997 15.5875 10.175C15.5875 10.69 15.6475 11.1925 15.76 11.675C10.29 11.4 5.4425 8.77997 2.195 4.79747C1.6275 5.77247 1.305 6.90247 1.305 8.10747C1.305 10.39 2.465 12.405 4.2325 13.5875C3.1525 13.5525 2.1375 13.255 1.25 12.7625C1.25 12.79 1.25 12.8175 1.25 12.845C1.25 16.035 3.52 18.6925 6.5275 19.3C5.9775 19.45 5.395 19.53 4.795 19.53C4.37 19.53 3.9575 19.49 3.555 19.41C4.395 22.0225 6.825 23.93 9.7025 23.9825C7.4525 25.7475 4.615 26.7975 1.53 26.7975C0.9975 26.7975 0.475 26.7675 -0.0375004 26.705C2.8725 28.575 6.3325 29.6625 10.05 29.6625C22.155 29.6625 28.775 19.635 28.775 10.94C28.775 10.655 28.7675 10.3675 28.7575 10.0875C30.0425 9.15997 31.1575 7.99997 32.04 6.67997Z" fill="#F2F2F2"/>
</g>
<defs>
<clipPath id="clip0_17_88">
<rect width="32" height="32" fill="white"/>
</clipPath>
</defs>
</svg>
